<svg xmlns="http://www.w3.org/2000/svg" width="24" height="24"><path d="M20.7 16.8c-.3-.1-2.5-1.1-2.5-3.9 0-2.2 1.5-3.3 2.1-3.7.1-.1.2-.2.2-.3 0-.1 0-.3-.1-.4-1.4-2.1-3.6-2.3-4.2-2.3-1.1-.1-2.2.3-3 .6-.4.2-.8.3-1.1.3-.3 0-.7-.2-1.1-.3-.7-.3-1.5-.6-2.4-.6-1.9 0-3.8 1.2-4.8 2.9-1.8 3.5-.6 8.5 1.4 11.5.8 1.2 2 2.9 3.7 2.9H9c.7 0 1.2-.2 1.7-.5.5-.2 1-.4 1.7-.4s1.2.2 1.6.4c.5.2 1 .4 1.8.4 1.7 0 2.8-1.6 3.6-2.9.9-1.3 1.4-2.7 1.5-3.2.2-.1.1-.4-.2-.5zM14.9 3.3c.7-.8 1.1-1.8 1.1-2.8-.9.2-1.9.8-2.5 1.5-.5.6-1.1 1.7-1.1 2.8.9-.1 1.9-.7 2.5-1.5z"/></svg>