<svg width="899" height="590" viewBox="0 0 899 590" fill="none" xmlns="http://www.w3.org/2000/svg">
<g filter="url(#filter0_d_4020_2767)">
<path d="M119.844 206.106H115.99C97.6095 206.106 83.3479 210.637 73.1469 219.931C58.6382 232.848 51.1598 266.622 59.9994 284.755C61.3607 287.701 62.2682 289.51 62.2682 289.74C53.384 290.459 44.5369 287.966 37.3345 282.715C34.3819 279.681 32.1232 276.042 30.7141 272.049C29.3049 268.057 28.779 263.806 29.1726 259.591C29.0061 245.467 32.7727 231.576 40.0512 219.471C48.4032 206.538 60.3936 196.364 74.5138 190.23C93.5667 182.174 114.151 178.382 134.823 179.121C149.554 179.172 164.258 180.386 178.798 182.751C190.467 184.878 202.295 186.015 214.156 186.152C226.406 186.288 238.567 184.055 249.969 179.575C250.453 190.408 246.807 201.021 239.768 209.27C235.915 212.661 231.425 215.25 226.56 216.884C221.695 218.518 216.552 219.165 211.434 218.787C204.828 218.822 198.231 218.292 191.715 217.202C185.144 216.053 175.633 214.485 163.611 211.987L120.998 410.773H76.3461L119.844 206.106ZM197.384 256.197H242.037L237.959 275.461C243.824 270.089 250.201 265.305 256.999 261.176C262.546 257.845 268.909 256.12 275.379 256.191C278.331 256.062 281.273 256.607 283.983 257.785C286.693 258.962 289.099 260.741 291.019 262.986C294.843 267.549 296.859 273.358 296.683 279.31C296.699 285.136 294.605 290.771 290.79 295.174C288.761 297.468 286.239 299.271 283.412 300.449C280.586 301.627 277.529 302.148 274.472 301.974C272.784 302.169 271.075 301.986 269.467 301.438C267.859 300.889 266.394 299.989 265.178 298.804C263.362 295.916 262.201 292.666 261.778 289.281C261.1 286.564 260.417 284.749 259.963 283.388C259.652 282.772 259.159 282.267 258.55 281.942C257.941 281.617 257.247 281.488 256.562 281.572C252.683 281.476 248.849 282.416 245.454 284.295C241.34 286.97 237.471 290.003 233.892 293.359L209.194 410.997H164.542L197.384 256.197ZM337.917 412.364C324.774 413.155 311.818 408.945 301.651 400.577C292.811 392.645 288.28 380.406 288.28 363.404C288.647 347.481 291.555 331.719 296.895 316.713C302.373 299.826 311.952 284.562 324.775 272.285C331.167 266.095 338.73 261.242 347.02 258.011C355.311 254.78 364.163 253.236 373.058 253.468C399.577 253.468 412.724 270.016 412.724 302.865V303.318C413.842 303.544 414.986 303.621 416.124 303.548C424.25 303.257 432.245 301.409 439.674 298.103C448.242 294.684 456.381 290.273 463.924 284.961L466.647 293.347C459.957 300.205 452.036 305.742 443.298 309.671C433.276 314.256 422.678 317.459 411.793 319.189C410.625 336.227 406.322 352.902 399.1 368.378C393.197 381.282 384.157 392.502 372.805 401.014C362.658 408.381 350.439 412.349 337.9 412.347L337.917 412.364ZM350.381 384.489C353.34 384.199 356.204 383.281 358.779 381.795C361.355 380.309 363.583 378.29 365.315 375.873C370.981 369.01 375.357 361.178 378.233 352.755C382.068 342.184 384.803 331.246 386.395 320.114C380.725 318.752 378.009 314.444 378.009 306.966C377.616 303.492 378.354 299.984 380.113 296.962C381.872 293.941 384.558 291.567 387.773 290.194C387.888 285.319 386.797 280.491 384.597 276.139C383.618 274.805 382.309 273.748 380.799 273.072C379.288 272.397 377.628 272.126 375.981 272.285C369.181 272.285 362.608 277.263 356.263 287.219C349.393 298.262 344.198 310.263 340.847 322.83C337.27 334.679 335.289 346.953 334.953 359.326C334.334 366.158 335.506 373.033 338.354 379.274C339.715 381.129 341.544 382.589 343.654 383.505C345.764 384.422 348.079 384.761 350.364 384.489H350.381ZM545.095 413.047C534.623 413.829 524.248 410.587 516.083 403.984C512.642 400.565 509.971 396.451 508.252 391.915C506.532 387.38 505.802 382.529 506.112 377.689C506.193 372.282 506.801 366.896 507.927 361.606L510.42 349.59C511.373 345.812 511.83 341.925 511.781 338.028C511.781 328.057 508.157 323.094 500.672 323.094C497.032 323.165 493.46 324.096 490.248 325.811C485.808 328.248 481.632 331.135 477.784 334.427L461.701 411.043H417.049L461.931 200.47L507.714 194.354L484.596 303.376L544.434 256.231H575.031L513.154 299.309C516.474 298.384 519.908 297.928 523.355 297.954C528.082 297.626 532.822 298.373 537.219 300.139C541.616 301.906 545.556 304.647 548.742 308.155C554.658 315.525 557.717 324.781 557.358 334.225C557.345 338.181 556.961 342.128 556.209 346.012L552.809 361.422C551.781 364.649 551.247 368.013 551.223 371.399C551.033 373.003 551.217 374.629 551.761 376.15C552.305 377.671 553.194 379.045 554.358 380.165C555.522 381.285 556.93 382.119 558.471 382.604C560.012 383.088 561.644 383.208 563.239 382.956C566.032 383.048 568.81 382.504 571.362 381.366C573.914 380.228 576.174 378.525 577.972 376.385C582.667 370.09 586.41 363.138 589.081 355.753H602.228C589.31 393.834 570.494 413.099 545.106 413.099L545.095 413.047Z" fill="#13493B"/>
</g>
<g filter="url(#filter1_d_4020_2767)">
<path d="M643.088 410.691C637.615 410.811 632.177 409.807 627.108 407.74C622.04 405.673 617.45 402.587 613.622 398.675C605.69 390.513 601.836 378.049 601.836 360.823C602.021 344.398 605.09 328.134 610.905 312.771C616.627 296.623 625.924 281.978 638.102 269.929C643.77 264.254 650.527 259.782 657.966 256.784C665.405 253.785 673.374 252.321 681.393 252.479C687.955 251.979 694.513 253.481 700.204 256.786C702.111 258.046 703.67 259.766 704.739 261.786C705.808 263.807 706.352 266.063 706.321 268.349V270.612L709.721 254.288H754.373L731.932 359.462C731.189 362.735 730.804 366.078 730.784 369.433C730.784 378.273 735.091 382.805 743.477 382.805C746.449 382.745 749.367 381.998 752.002 380.622C754.637 379.245 756.917 377.278 758.664 374.873C763.317 368.556 766.703 361.397 768.635 353.793H781.553C773.844 376.004 764.551 391.19 753.219 399.123C743.413 406.568 731.528 410.769 719.221 411.139C711.599 411.469 704.138 408.874 698.366 403.885C692.778 398.13 689.406 390.583 688.848 382.581C683.389 390.515 676.648 397.486 668.9 403.207C661.257 408.293 652.232 410.9 643.053 410.673L643.088 410.691ZM663.26 380.542C669.078 380.211 674.533 377.606 678.446 373.288C683.84 367.832 687.472 360.883 688.871 353.339L703.805 283.3C703.701 280.368 702.58 277.564 700.634 275.368C699.448 274.041 697.973 273.004 696.323 272.336C694.673 271.667 692.892 271.386 691.117 271.514C682.955 271.514 675.477 276.275 668.906 286.016C661.815 296.606 656.602 308.338 653.495 320.698C650.08 332.345 648.175 344.383 647.826 356.516C647.826 366.94 649.412 373.511 652.358 376.228C653.779 377.654 655.478 378.773 657.349 379.515C659.221 380.257 661.225 380.607 663.237 380.542H663.26ZM831.443 176.311H864.085L826.457 235.018H803.339L831.443 176.311ZM799.485 410.685C795.058 410.858 790.642 410.123 786.51 408.524C782.378 406.926 778.617 404.499 775.459 401.392C768.888 393.652 765.63 383.636 766.389 373.511C766.621 366.727 767.456 359.976 768.882 353.339L789.962 253.835H834.614L812.173 359.008C811.245 362.25 810.787 365.608 810.811 368.98C810.643 370.578 810.819 372.194 811.327 373.719C811.835 375.244 812.664 376.641 813.758 377.819C816.604 379.804 820.073 380.692 823.522 380.318C829.879 380.137 835.906 377.453 840.294 372.851C845.727 367.413 849.569 360.592 851.403 353.127H864.32C856.612 375.344 846.865 390.524 834.855 398.462C824.634 406.131 812.271 410.41 799.496 410.702L799.485 410.685Z" fill="#13493B"/>
</g>
<g filter="url(#filter2_d_4020_2767)">
<path d="M239.652 126.106L199.531 166.887V115.658H197.716C176.814 117.582 156.159 121.606 136.063 127.669C74.8631 146.709 29.9812 184.566 12.7556 231.482L10.0331 238.512L9.12565 235.111C5.48151 219.42 5.01864 203.156 7.76438 187.283C17.5288 136.054 61.9396 91.6324 126.086 68.7378C146.221 61.5154 167.146 56.7214 188.417 54.4583C193.403 54.0045 197.935 53.3098 198.618 53.3098C199.296 53.0858 199.526 47.193 199.526 27.9284C199.252 19.6129 199.48 11.288 200.209 3C200.887 3 279.996 84.1425 279.766 84.5962C279.536 85.05 261.633 103.636 239.646 126.077L239.652 126.106Z" fill="#13493B"/>
</g>
<g filter="url(#filter3_d_4020_2767)">
<path d="M658.842 457.894L698.962 417.114V468.342H700.777C721.679 466.415 742.334 462.39 762.43 456.326C823.63 437.285 868.512 399.434 885.738 352.513L888.46 345.488L889.368 348.889C893.011 364.579 893.474 380.84 890.729 396.712C880.964 447.94 836.554 492.362 772.407 515.257C752.271 522.476 731.347 527.27 710.076 529.536C705.09 529.99 700.559 530.685 699.875 530.685C699.197 530.909 698.968 536.802 698.968 556.067C699.243 564.384 699.017 572.71 698.29 581C697.612 581 618.503 499.852 618.733 499.398C618.733 498.945 636.866 480.582 658.853 457.917L658.842 457.894Z" fill="#13493B"/>
</g>
<defs>
<filter id="filter0_d_4020_2767" x="23.0459" y="176.03" width="585.183" height="246.132" filterUnits="userSpaceOnUse" color-interpolation-filters="sRGB">
<feFlood flood-opacity="0" result="BackgroundImageFix"/>
<feColorMatrix in="SourceAlpha" type="matrix" values="0 0 0 0 0 0 0 0 0 0 0 0 0 0 0 0 0 0 127 0" result="hardAlpha"/>
<feOffset dy="3"/>
<feGaussianBlur stdDeviation="3"/>
<feColorMatrix type="matrix" values="0 0 0 0 0 0 0 0 0 0 0 0 0 0 0 0 0 0 0.161 0"/>
<feBlend mode="normal" in2="BackgroundImageFix" result="effect1_dropShadow_4020_2767"/>
<feBlend mode="normal" in="SourceGraphic" in2="effect1_dropShadow_4020_2767" result="shape"/>
</filter>
<filter id="filter1_d_4020_2767" x="595.836" y="173.311" width="274.484" height="246.856" filterUnits="userSpaceOnUse" color-interpolation-filters="sRGB">
<feFlood flood-opacity="0" result="BackgroundImageFix"/>
<feColorMatrix in="SourceAlpha" type="matrix" values="0 0 0 0 0 0 0 0 0 0 0 0 0 0 0 0 0 0 127 0" result="hardAlpha"/>
<feOffset dy="3"/>
<feGaussianBlur stdDeviation="3"/>
<feColorMatrix type="matrix" values="0 0 0 0 0 0 0 0 0 0 0 0 0 0 0 0 0 0 0.161 0"/>
<feBlend mode="normal" in2="BackgroundImageFix" result="effect1_dropShadow_4020_2767"/>
<feBlend mode="normal" in="SourceGraphic" in2="effect1_dropShadow_4020_2767" result="shape"/>
</filter>
<filter id="filter2_d_4020_2767" x="0" y="0" width="285.767" height="247.512" filterUnits="userSpaceOnUse" color-interpolation-filters="sRGB">
<feFlood flood-opacity="0" result="BackgroundImageFix"/>
<feColorMatrix in="SourceAlpha" type="matrix" values="0 0 0 0 0 0 0 0 0 0 0 0 0 0 0 0 0 0 127 0" result="hardAlpha"/>
<feOffset dy="3"/>
<feGaussianBlur stdDeviation="3"/>
<feColorMatrix type="matrix" values="0 0 0 0 0 0 0 0 0 0 0 0 0 0 0 0 0 0 0.161 0"/>
<feBlend mode="normal" in2="BackgroundImageFix" result="effect1_dropShadow_4020_2767"/>
<feBlend mode="normal" in="SourceGraphic" in2="effect1_dropShadow_4020_2767" result="shape"/>
</filter>
<filter id="filter3_d_4020_2767" x="612.732" y="342.488" width="285.76" height="247.512" filterUnits="userSpaceOnUse" color-interpolation-filters="sRGB">
<feFlood flood-opacity="0" result="BackgroundImageFix"/>
<feColorMatrix in="SourceAlpha" type="matrix" values="0 0 0 0 0 0 0 0 0 0 0 0 0 0 0 0 0 0 127 0" result="hardAlpha"/>
<feOffset dy="3"/>
<feGaussianBlur stdDeviation="3"/>
<feColorMatrix type="matrix" values="0 0 0 0 0 0 0 0 0 0 0 0 0 0 0 0 0 0 0.161 0"/>
<feBlend mode="normal" in2="BackgroundImageFix" result="effect1_dropShadow_4020_2767"/>
<feBlend mode="normal" in="SourceGraphic" in2="effect1_dropShadow_4020_2767" result="shape"/>
</filter>
</defs>
</svg>
