<?xml version="1.0" standalone="no"?>
<!DOCTYPE svg PUBLIC "-//W3C//DTD SVG 20010904//EN"
 "http://www.w3.org/TR/2001/REC-SVG-20010904/DTD/svg10.dtd">
<svg version="1.0" xmlns="http://www.w3.org/2000/svg"
 width="225.000000pt" height="225.000000pt" viewBox="0 0 225.000000 225.000000"
 preserveAspectRatio="xMidYMid meet">
<metadata>
Created by potrace 1.16, written by Peter Selinger 2001-2019
</metadata>
<g transform="translate(0.000000,225.000000) scale(0.100000,-0.100000)"
fill="#000000" stroke="none">
<path d="M975 2240 c-159 -21 -339 -84 -479 -168 -93 -56 -249 -200 -312 -288
-60 -84 -129 -232 -155 -334 -20 -77 -22 -117 -26 -423 l-5 -338 124 124 c215
217 426 328 731 389 157 31 387 31 544 0 305 -60 516 -172 731 -388 l122 -123
0 289 c0 159 -5 324 -11 366 -21 151 -86 315 -174 439 -62 87 -211 226 -307
285 -102 62 -264 127 -383 151 -106 22 -302 31 -400 19z"/>
<path d="M1027 609 c-87 -11 -225 -63 -299 -112 -83 -55 -171 -154 -212 -239
-34 -67 -65 -182 -66 -235 l0 -23 670 0 c582 0 671 2 676 15 11 27 -25 170
-62 243 -91 185 -297 323 -526 352 -91 11 -85 11 -181 -1z"/>
</g>
</svg>
