<svg width="512" height="512" viewBox="0 0 512 512" fill="none" xmlns="http://www.w3.org/2000/svg">
<path d="M512 0H0V512H512V0Z" fill="#13493B"/>
<g filter="url(#filter0_d_4738_225)">
<path d="M100.724 215.3H98.9064C90.2448 215.3 83.5098 217.439 78.696 221.831C71.8522 227.924 68.3255 243.857 72.4944 252.412C73.1366 253.803 73.5638 254.654 73.5638 254.766C69.3732 255.104 65.2001 253.928 61.8027 251.451C60.41 250.02 59.3445 248.304 58.6797 246.421C58.0149 244.538 57.7667 242.533 57.9523 240.545C57.8746 233.882 59.6515 227.329 63.0844 221.619C67.0236 215.519 72.6786 210.72 79.3382 207.825C88.3237 204.027 98.031 202.239 107.78 202.587C114.729 202.611 121.665 203.183 128.524 204.298C134.029 205.301 139.609 205.838 145.205 205.901C150.983 205.966 156.72 204.912 162.098 202.799C162.327 207.91 160.608 212.916 157.287 216.808C155.47 218.408 153.352 219.629 151.056 220.4C148.761 221.171 146.335 221.476 143.921 221.298C140.804 221.315 137.691 221.064 134.617 220.55C131.517 220.005 127.025 219.268 121.359 218.1L101.258 311.876H80.1926L100.724 215.3ZM137.292 238.931H158.356L156.433 248.02C159.199 245.486 162.207 243.23 165.413 241.282C168.027 239.713 171.025 238.899 174.074 238.931C175.466 238.871 176.854 239.128 178.132 239.683C179.411 240.239 180.546 241.078 181.451 242.137C183.256 244.29 184.206 247.03 184.124 249.838C184.131 252.586 183.143 255.245 181.343 257.321C180.386 258.403 179.196 259.254 177.862 259.81C176.529 260.366 175.087 260.612 173.644 260.53C172.848 260.621 172.042 260.535 171.283 260.276C170.525 260.017 169.834 259.592 169.26 259.033C168.404 257.67 167.857 256.137 167.658 254.54C167.337 253.258 167.015 252.404 166.803 251.762C166.656 251.472 166.424 251.234 166.137 251.081C165.85 250.928 165.523 250.867 165.2 250.907C163.371 250.862 161.563 251.306 159.962 252.192C158.026 253.454 156.205 254.884 154.52 256.467L142.865 311.963H121.8L137.292 238.931ZM203.586 312.602C197.385 312.976 191.274 310.99 186.477 307.043C182.309 303.301 180.17 297.519 180.17 289.508C180.342 281.996 181.714 274.561 184.232 267.482C186.817 259.518 191.335 252.319 197.384 246.529C200.4 243.609 203.967 241.32 207.878 239.796C211.789 238.272 215.965 237.543 220.16 237.652C232.678 237.652 238.871 245.46 238.871 260.965V261.177C239.4 261.284 239.939 261.32 240.477 261.286C244.315 261.15 248.09 260.278 251.599 258.717C255.637 257.103 259.473 255.022 263.028 252.515L264.312 256.472C261.156 259.706 257.421 262.318 253.299 264.171C248.571 266.334 243.571 267.844 238.436 268.661C237.885 276.698 235.856 284.564 232.449 291.864C229.665 297.951 225.401 303.245 220.046 307.261C215.259 310.736 209.496 312.608 203.58 312.608L203.586 312.602ZM209.466 299.451C210.864 299.316 212.217 298.884 213.434 298.183C214.651 297.483 215.704 296.529 216.522 295.388C219.196 292.15 221.261 288.455 222.618 284.482C224.427 279.495 225.717 274.336 226.468 269.085C223.796 268.443 222.512 266.41 222.512 262.883C222.326 261.245 222.673 259.591 223.501 258.165C224.329 256.74 225.595 255.62 227.11 254.97C227.165 252.671 226.651 250.394 225.614 248.341C225.152 247.712 224.535 247.214 223.823 246.895C223.11 246.577 222.328 246.449 221.551 246.524C218.344 246.524 215.243 248.876 212.25 253.582C209.011 258.788 206.56 264.445 204.979 270.369C203.292 275.958 202.357 281.748 202.198 287.584C201.906 290.807 202.46 294.05 203.803 296.994C204.447 297.866 205.31 298.553 206.305 298.983C207.301 299.413 208.392 299.572 209.469 299.443L209.466 299.451ZM301.315 312.924C296.375 313.293 291.479 311.764 287.627 308.649C286.004 307.035 284.745 305.094 283.933 302.954C283.122 300.815 282.777 298.526 282.922 296.243C282.96 293.691 283.246 291.149 283.777 288.653L284.952 282.985C285.401 281.206 285.617 279.377 285.595 277.542C285.595 272.84 283.883 270.486 280.356 270.486C278.638 270.519 276.952 270.958 275.436 271.768C273.342 272.917 271.371 274.278 269.556 275.831L261.964 311.974H240.899L262.07 212.65L283.668 209.763L272.761 261.194L300.991 238.953H315.414L286.223 259.27C287.789 258.832 289.408 258.616 291.034 258.627C293.264 258.473 295.499 258.826 297.573 259.659C299.647 260.492 301.505 261.784 303.008 263.438C305.797 266.915 307.24 271.281 307.07 275.736C307.064 277.602 306.881 279.463 306.526 281.295L304.923 288.566C304.439 290.088 304.186 291.674 304.175 293.271C304.087 294.027 304.174 294.793 304.432 295.51C304.689 296.226 305.108 296.873 305.657 297.4C306.206 297.927 306.87 298.32 307.596 298.548C308.322 298.776 309.091 298.832 309.843 298.713C311.161 298.756 312.471 298.499 313.675 297.962C314.879 297.424 315.945 296.621 316.793 295.611C319.008 292.641 320.774 289.362 322.034 285.877H328.236C322.14 303.837 313.269 312.932 301.296 312.932L301.315 312.924Z" fill="white"/>
</g>
<g filter="url(#filter1_d_4738_225)">
<path d="M347.518 311.809C344.936 311.866 342.371 311.392 339.98 310.417C337.589 309.442 335.424 307.987 333.618 306.141C329.876 302.29 328.059 296.41 328.059 288.284C328.145 280.536 329.593 272.863 332.336 265.617C335.036 257.999 339.422 251.09 345.167 245.406C347.841 242.729 351.028 240.62 354.538 239.205C358.047 237.791 361.806 237.1 365.589 237.174C368.685 236.939 371.779 237.648 374.463 239.207C375.362 239.8 376.097 240.609 376.601 241.56C377.106 242.511 377.363 243.573 377.351 244.65V245.719L378.953 238.018H400.018L389.433 287.634C389.081 289.178 388.899 290.756 388.888 292.339C388.888 296.508 390.921 298.647 394.875 298.647C396.277 298.619 397.654 298.266 398.897 297.617C400.14 296.968 401.216 296.04 402.04 294.905C404.235 291.925 405.833 288.549 406.745 284.962H412.84C409.205 295.441 404.821 302.603 399.474 306.345C394.848 309.857 389.241 311.839 383.435 312.013C379.84 312.169 376.321 310.945 373.598 308.592C370.961 305.877 369.371 302.316 369.108 298.54C366.533 302.284 363.353 305.573 359.698 308.272C356.095 310.676 351.838 311.911 347.507 311.809H347.518ZM357.042 297.588C359.787 297.433 362.361 296.204 364.207 294.168C366.752 291.594 368.466 288.316 369.127 284.758L376.183 251.717C376.133 250.334 375.604 249.011 374.686 247.975C374.127 247.349 373.431 246.86 372.653 246.545C371.874 246.229 371.034 246.097 370.196 246.157C366.346 246.157 362.819 248.402 359.717 252.998C356.372 257.994 353.912 263.528 352.446 269.358C350.836 274.853 349.938 280.531 349.774 286.254C349.774 291.171 350.522 294.271 351.913 295.552C352.583 296.225 353.385 296.752 354.268 297.102C355.15 297.452 356.096 297.616 357.045 297.585L357.042 297.588ZM436.382 201.257H451.778L434.028 228.951H423.121L436.382 201.257ZM421.306 311.82C419.218 311.901 417.135 311.554 415.186 310.8C413.237 310.046 411.462 308.902 409.972 307.436C406.872 303.784 405.335 299.059 405.695 294.282C405.803 291.079 406.197 287.891 406.87 284.758L416.813 237.82H437.878L427.293 287.433C426.855 288.961 426.639 290.545 426.651 292.135C426.571 292.889 426.655 293.651 426.894 294.37C427.134 295.089 427.525 295.748 428.041 296.303C429.382 297.238 431.015 297.657 432.64 297.482C435.641 297.393 438.485 296.121 440.553 293.944C443.116 291.379 444.927 288.162 445.791 284.641H451.887C448.251 295.12 443.653 302.285 437.987 306.026C433.166 309.645 427.333 311.665 421.306 311.804V311.82Z" fill="white"/>
</g>
<g filter="url(#filter2_d_4738_225)">
<path d="M157.219 177.557L138.293 196.804V172.64H137.439C127.579 173.548 117.835 175.445 108.355 178.305C79.4854 187.285 58.3117 205.144 50.1862 227.287L48.9018 230.604L48.4746 229.001C46.7554 221.599 46.537 213.928 47.8324 206.44C52.4312 182.273 73.3872 161.317 103.647 150.516C113.146 147.109 123.017 144.846 133.052 143.779C135.403 143.566 137.542 143.234 137.863 143.234C138.185 143.128 138.291 140.347 138.291 131.261C138.161 127.338 138.268 123.41 138.612 119.5C138.933 119.5 176.249 157.777 176.143 157.991C176.036 158.206 167.59 166.972 157.217 177.56L157.219 177.557Z" fill="white"/>
</g>
<g filter="url(#filter3_d_4738_225)">
<path d="M354.943 334.064L373.869 314.817V338.984H374.723C384.584 338.075 394.328 336.176 403.808 333.316C432.677 324.336 453.848 306.476 461.976 284.334L463.261 281.02L463.688 282.622C465.407 290.024 465.625 297.696 464.33 305.184C459.731 329.348 438.775 350.307 408.515 361.107C399.016 364.513 389.145 366.774 379.11 367.842C376.759 368.057 374.62 368.386 374.299 368.386C373.978 368.493 373.872 371.274 373.872 380.36C374.001 384.284 373.894 388.212 373.551 392.124C373.23 392.124 335.914 353.844 336.02 353.629C336.02 353.414 344.573 344.753 354.946 334.061L354.943 334.064Z" fill="white"/>
</g>
<defs>
<filter id="filter0_d_4738_225" x="51.8926" y="199.544" width="282.344" height="122.434" filterUnits="userSpaceOnUse" color-interpolation-filters="sRGB">
<feFlood flood-opacity="0" result="BackgroundImageFix"/>
<feColorMatrix in="SourceAlpha" type="matrix" values="0 0 0 0 0 0 0 0 0 0 0 0 0 0 0 0 0 0 127 0" result="hardAlpha"/>
<feOffset dy="3"/>
<feGaussianBlur stdDeviation="3"/>
<feColorMatrix type="matrix" values="0 0 0 0 0 0 0 0 0 0 0 0 0 0 0 0 0 0 0.161 0"/>
<feBlend mode="normal" in2="BackgroundImageFix" result="effect1_dropShadow_4738_225"/>
<feBlend mode="normal" in="SourceGraphic" in2="effect1_dropShadow_4738_225" result="shape"/>
</filter>
<filter id="filter1_d_4738_225" x="322.059" y="198.257" width="135.828" height="122.769" filterUnits="userSpaceOnUse" color-interpolation-filters="sRGB">
<feFlood flood-opacity="0" result="BackgroundImageFix"/>
<feColorMatrix in="SourceAlpha" type="matrix" values="0 0 0 0 0 0 0 0 0 0 0 0 0 0 0 0 0 0 127 0" result="hardAlpha"/>
<feOffset dy="3"/>
<feGaussianBlur stdDeviation="3"/>
<feColorMatrix type="matrix" values="0 0 0 0 0 0 0 0 0 0 0 0 0 0 0 0 0 0 0.161 0"/>
<feBlend mode="normal" in2="BackgroundImageFix" result="effect1_dropShadow_4738_225"/>
<feBlend mode="normal" in="SourceGraphic" in2="effect1_dropShadow_4738_225" result="shape"/>
</filter>
<filter id="filter2_d_4738_225" x="41" y="116.5" width="141.143" height="123.104" filterUnits="userSpaceOnUse" color-interpolation-filters="sRGB">
<feFlood flood-opacity="0" result="BackgroundImageFix"/>
<feColorMatrix in="SourceAlpha" type="matrix" values="0 0 0 0 0 0 0 0 0 0 0 0 0 0 0 0 0 0 127 0" result="hardAlpha"/>
<feOffset dy="3"/>
<feGaussianBlur stdDeviation="3"/>
<feColorMatrix type="matrix" values="0 0 0 0 0 0 0 0 0 0 0 0 0 0 0 0 0 0 0.161 0"/>
<feBlend mode="normal" in2="BackgroundImageFix" result="effect1_dropShadow_4738_225"/>
<feBlend mode="normal" in="SourceGraphic" in2="effect1_dropShadow_4738_225" result="shape"/>
</filter>
<filter id="filter3_d_4738_225" x="330.02" y="278.02" width="141.143" height="123.104" filterUnits="userSpaceOnUse" color-interpolation-filters="sRGB">
<feFlood flood-opacity="0" result="BackgroundImageFix"/>
<feColorMatrix in="SourceAlpha" type="matrix" values="0 0 0 0 0 0 0 0 0 0 0 0 0 0 0 0 0 0 127 0" result="hardAlpha"/>
<feOffset dy="3"/>
<feGaussianBlur stdDeviation="3"/>
<feColorMatrix type="matrix" values="0 0 0 0 0 0 0 0 0 0 0 0 0 0 0 0 0 0 0.161 0"/>
<feBlend mode="normal" in2="BackgroundImageFix" result="effect1_dropShadow_4738_225"/>
<feBlend mode="normal" in="SourceGraphic" in2="effect1_dropShadow_4738_225" result="shape"/>
</filter>
</defs>
</svg>
