<svg xmlns="http://www.w3.org/2000/svg" width="75.945" height="61.521" viewBox="0 0 75.945 61.521">
  <defs>
    <style>
      .cls-1 {
        fill: #fff;
        stroke: #8ba3ac;
        stroke-linecap: round;
        stroke-linejoin: round;
        stroke-width: 2.5px;
      }
    </style>
  </defs>
  <g id="chatboxes-profile" transform="translate(-8855.163 -1999.806)">
    <path id="Path_812" data-name="Path 812" class="cls-1" d="M324.8,780.453c.053-6.8,1.146-6.4,7.891-6.5,7.647-.107,14.038-.013,21.687,0,1.155,0,12.113-.113,15.453,0,4.115.139,6.292,2.392,6.3,6.5.026,7.923.041,15.847-.01,23.77-.023,3.657-2.225,5.908-5.872,6.089a49.078,49.078,0,0,1-5.808-.01c-1.685-.116-2.309.372-2.233,2.159.143,3.357.042,6.726.042,10.7-3.785-4.154-7.121-7.763-10.385-11.438a3.821,3.821,0,0,0-3.177-1.418c-5.721.047-11.444.008-17.165-.066-4.425-.058-6.614-2.284-6.727-6.684C324.782,802.935,324.758,785.639,324.8,780.453Z" transform="translate(8553.703 1227.151)"/>
    <path id="Path_813" data-name="Path 813" class="cls-1" d="M376.375,780.483c-.054-6.829-1.151-6.434-7.928-6.53-7.683-.108-14.1-.013-21.787,0-1.16,0-12.17-.114-15.525,0-4.134.139-6.321,2.4-6.334,6.53-.026,7.96-.041,15.92.01,23.88.023,3.674,2.235,5.935,5.9,6.117a49.287,49.287,0,0,0,5.835-.01c1.692-.116,2.319.373,2.244,2.169-.144,3.373-.042,6.757-.042,10.747,3.8-4.173,7.155-7.8,10.433-11.491a3.84,3.84,0,0,1,3.192-1.425c5.748.047,11.5.008,17.245-.066,4.446-.058,6.645-2.294,6.759-6.715C376.391,803.069,376.415,785.693,376.375,780.483Z" transform="translate(8531.636 1236.691)"/>
  </g>
</svg>
