<svg xmlns="http://www.w3.org/2000/svg" width="33.198" height="31.775" viewBox="0 0 33.198 31.775">
  <defs>
    <style>
      .cls-1 {
        fill: #fff;
      }
    </style>
  </defs>
  <g id="Group_830" data-name="Group 830" transform="translate(-4162 2009.689)">
    <path id="Path_852" data-name="Path 852" class="cls-1" d="M3769.515-1104.207l4.55,4.6,4.6-4.788-.867-3.345-3.732,1.03-3.828-1.03Z" transform="translate(405 -901)"/>
    <path id="Path_814" data-name="Path 814" class="cls-1" d="M194.642,165.844a.707.707,0,0,0,.064.056l.042.033a1.088,1.088,0,0,0,.648.288h.056a1.091,1.091,0,0,0,.654-.289l.04-.032a.7.7,0,0,0,.064-.056l3.209-3.164.436-.431.011-.011a3.641,3.641,0,0,0,0-5.036,3.256,3.256,0,0,0-4.442,0,3.256,3.256,0,0,0-4.441,0,3.644,3.644,0,0,0,0,5.036l.013.013Zm-2.616-7.646a1.9,1.9,0,0,1,2.6.216c.054.048.1.089.132.122a.939.939,0,0,0,.665.322.95.95,0,0,0,.671-.325c.035-.033.077-.072.128-.118a1.9,1.9,0,0,1,2.6-.215,2.2,2.2,0,0,1,0,3.036l-3.406,3.359-2.977-2.935-.432-.424A2.2,2.2,0,0,1,192.026,158.2Z" transform="translate(3983.588 -2166.018)"/>
    <path id="Path_816" data-name="Path 816" class="cls-1" d="M66.566,331.406a2.33,2.33,0,0,0-.976-1.072c.031-.066.059-.135.086-.2a3.143,3.143,0,0,0,.08-1.92,2.368,2.368,0,0,0-1-1.422,1.6,1.6,0,0,0-1.534-.093l-.007,0-1.954.934a3.152,3.152,0,0,0-.1-1.018,2.359,2.359,0,0,0-1.013-1.428,1.6,1.6,0,0,0-1.52-.087l-.008,0L55,326.833a3.011,3.011,0,0,0-.1-.933,2.257,2.257,0,0,0-.954-1.356,1.523,1.523,0,0,0-1.469-.085l-6.541,3.11c-.256-.121-.493-.246-.722-.369-1.327-.71-2.4-1.281-5.361-.009a1.714,1.714,0,0,0-1.516-1.647H35.263a1.8,1.8,0,0,0-1.539,1.974V334.9c0,.4.251,2.214.56,2.214s.56-1.817.56-2.214v-7.377a.49.49,0,0,1,.419-.537h3.071a.5.5,0,0,1,.419.537V339.03a.5.5,0,0,1-.419.537H35.263a.49.49,0,0,1-.419-.537V334.9c0-.4-.251-7.326-.56-7.326s-.56,6.929-.56,7.326v4.135A1.8,1.8,0,0,0,35.263,341h3.071a1.675,1.675,0,0,0,1.493-1.5,12.363,12.363,0,0,1,4.656,1.065L48,341.912a7.009,7.009,0,0,0,2.4.373,7.17,7.17,0,0,0,2.516-.405c1.8-.715,4.669-2.115,5.8-2.706l7.018-3.665a2.278,2.278,0,0,0,1.073-1.519,3.962,3.962,0,0,0-.243-2.585Zm-2.966-3.36a.7.7,0,0,1,.674.039,1.006,1.006,0,0,1,.426.6,1.343,1.343,0,0,1-.035.821.947.947,0,0,1-.476.551l-.009,0L55.7,334.113a4.136,4.136,0,0,0-.059-.75,3.452,3.452,0,0,0-.482-1.281ZM59,326.452a.7.7,0,0,1,.667.037,1,1,0,0,1,.431.6,1.273,1.273,0,0,1-.307,1.24l-5.831,2.788-2.453-1.084Zm-6.144-.643a.628.628,0,0,1,.6.033.9.9,0,0,1,.379.538,1.05,1.05,0,0,1-.455,1.225l0,0L49.842,329.3,47.6,328.31Zm12.888,7.734a.96.96,0,0,1-.43.634L58.3,337.843c-1.12.583-3.945,1.963-5.713,2.665a7.007,7.007,0,0,1-4.26.028l-3.52-1.348a13.24,13.24,0,0,0-4.931-1.124V328.7c2.822-1.288,3.662-.84,4.906-.174.3.16.61.326.974.487l8.033,3.551.018.007a1.418,1.418,0,0,1,.743,1.1,1.94,1.94,0,0,1-.349,1.565c-.447.518-1.231.575-2.21.161l-4.95-2.093c-.294-.124-.61.08-.707.457a.777.777,0,0,0,.357.907l4.949,2.093a3.893,3.893,0,0,0,1.515.345,2.306,2.306,0,0,0,1.8-.8,2.729,2.729,0,0,0,.313-.45l8.623-4.117.017-.007a1.173,1.173,0,0,1,1.711.429A2.152,2.152,0,0,1,65.745,333.544Z" transform="translate(4128.276 -2320.199)"/>
  </g>
</svg>
