<svg xmlns="http://www.w3.org/2000/svg" width="92.08" height="91.569" viewBox="0 0 92.08 91.569"><defs><style>.a{fill:#58b792;}.b{fill:#59b892;}</style></defs><g transform="translate(-8812.543 -2327.206)"><path class="a" d="M105.7,269.767,76.9,247.721a1.318,1.318,0,0,0-2.126,1v14.66H42c-7.9,0-16.007-2.131-21.992-7.184a1.312,1.312,0,0,0-2.152,1.2,31.441,31.441,0,0,0,2.875,8.407C24.94,273.871,32.1,277.959,42,277.959h32.52v14a1.273,1.273,0,0,0,.726,1.142,1.344,1.344,0,0,0,1.376-.12l29.05-21.184a1.256,1.256,0,0,0,.024-2.026Z" transform="translate(8798.425 2125.543)"/><path class="b" d="M88.872,22.32,59.747.275a1.335,1.335,0,0,0-2.151,1V15.938H24.446c-7.994,0-16.191-2.131-22.244-7.184a1.327,1.327,0,0,0-2.177,1.2,31.194,31.194,0,0,0,2.908,8.406c4.255,8.062,11.494,12.15,21.513,12.15H57.339V44.507a1.272,1.272,0,0,0,.735,1.142,1.372,1.372,0,0,0,1.391-.12L88.848,24.346a1.247,1.247,0,0,0,.025-2.026Z" transform="translate(8901.923 2372.99) rotate(180)"/></g></svg>