<svg width="156" height="102" viewBox="0 0 156 102" fill="none" xmlns="http://www.w3.org/2000/svg">
<path d="M20.8161 36.3564H20.1451C16.9451 36.3564 14.4621 37.1454 12.6861 38.7634C10.1601 41.0124 8.85813 46.8924 10.3971 50.0494C10.6341 50.5624 10.7921 50.8773 10.7921 50.9173C9.24537 51.0424 7.70507 50.6085 6.45111 49.6943C5.93707 49.166 5.54383 48.5325 5.29849 47.8374C5.05316 47.1423 4.96159 46.4022 5.03012 45.6683C5.00113 43.2094 5.6569 40.7908 6.9241 38.6833C8.37821 36.4317 10.4658 34.6605 12.9241 33.5924C16.2413 32.19 19.825 31.5298 23.4241 31.6583C25.9888 31.6673 28.5487 31.8787 31.0801 32.2904C33.1118 32.6606 35.1711 32.8587 37.2361 32.8824C39.3688 32.9061 41.486 32.5173 43.4711 31.7374C43.5554 33.6235 42.9207 35.4712 41.6951 36.9073C41.0244 37.4978 40.2426 37.9485 39.3956 38.233C38.5486 38.5175 37.6532 38.6301 36.7621 38.5643C35.612 38.5705 34.4635 38.4781 33.3291 38.2883C32.1851 38.0883 30.5291 37.8154 28.4361 37.3804L21.0171 71.9894H13.2431L20.8161 36.3564ZM34.3161 45.0774H42.0901L41.3801 48.4314C42.4013 47.4961 43.5116 46.6631 44.6951 45.9443C45.6609 45.3644 46.7687 45.064 47.8951 45.0764C48.409 45.054 48.9213 45.1489 49.3931 45.3539C49.8649 45.5588 50.2838 45.8685 50.6181 46.2594C51.2839 47.0539 51.6348 48.0653 51.6041 49.1014C51.6069 50.1158 51.2424 51.0968 50.5781 51.8634C50.2249 52.2627 49.7858 52.5768 49.2937 52.7818C48.8016 52.9869 48.2694 53.0777 47.7371 53.0473C47.4434 53.0813 47.1457 53.0495 46.8658 52.954C46.5859 52.8585 46.3308 52.7018 46.1191 52.4953C45.8029 51.9926 45.6008 51.4267 45.5271 50.8374C45.4091 50.3644 45.2901 50.0484 45.2111 49.8114C45.157 49.7041 45.0711 49.6162 44.9651 49.5597C44.8592 49.5031 44.7383 49.4806 44.6191 49.4953C43.9438 49.4786 43.2762 49.6422 42.6851 49.9693C41.9689 50.435 41.2953 50.9631 40.6721 51.5473L36.3721 72.0284H28.5981L34.3161 45.0774ZM58.7831 72.2663C56.4948 72.4042 54.2392 71.6711 52.4691 70.2143C50.9301 68.8333 50.1411 66.7024 50.1411 63.7424C50.205 60.9702 50.7114 58.2259 51.6411 55.6134C52.5947 52.6734 54.2625 50.0158 56.4951 47.8784C57.6079 46.8007 58.9246 45.9558 60.368 45.3933C61.8114 44.8308 63.3525 44.5619 64.9011 44.6024C69.5181 44.6024 71.8071 47.4834 71.8071 53.2024V53.2814C72.0018 53.3206 72.2009 53.3341 72.3991 53.3214C73.8138 53.2707 75.2057 52.9489 76.4991 52.3734C77.9909 51.7782 79.4079 51.0102 80.7211 50.0853L81.1951 51.5454C80.0304 52.7394 78.6514 53.7034 77.1301 54.3873C75.3853 55.1857 73.5401 55.7432 71.6451 56.0444C71.4417 59.0108 70.6925 61.914 69.4351 64.6084C68.4075 66.8549 66.8336 68.8083 64.8571 70.2904C63.0905 71.573 60.9633 72.2637 58.7801 72.2634L58.7831 72.2663ZM60.9531 67.4133C61.4683 67.3629 61.9668 67.203 62.4152 66.9443C62.8636 66.6856 63.2516 66.3341 63.5531 65.9133C64.5396 64.7184 65.3015 63.3548 65.8021 61.8884C66.4698 60.0479 66.946 58.1436 67.2231 56.2054C66.2361 55.9684 65.7631 55.2184 65.7631 53.9164C65.6948 53.3116 65.8233 52.7008 66.1295 52.1748C66.4358 51.6488 66.9034 51.2355 67.4631 50.9963C67.4831 50.1476 67.2932 49.3071 66.9101 48.5494C66.7397 48.3172 66.5118 48.1331 66.2488 48.0155C65.9859 47.8979 65.6969 47.8507 65.4101 47.8784C64.2261 47.8784 63.0818 48.745 61.9771 50.4784C60.7811 52.4011 59.8766 54.4904 59.2931 56.6783C58.6705 58.7414 58.3255 60.8782 58.2671 63.0323C58.1593 64.2218 58.3634 65.4188 58.8591 66.5054C59.0961 66.8283 59.4145 67.0825 59.7819 67.2421C60.1492 67.4016 60.5524 67.4606 60.9501 67.4133H60.9531ZM94.8531 72.3854C93.03 72.5214 91.2236 71.9571 89.8021 70.8074C89.203 70.2122 88.7381 69.4959 88.4387 68.7063C88.1392 67.9167 88.0122 67.0721 88.0661 66.2294C88.0802 65.288 88.186 64.3503 88.3821 63.4294L88.8161 61.3374C88.982 60.6795 89.0617 60.0028 89.0531 59.3243C89.0531 57.5883 88.4221 56.7244 87.1191 56.7244C86.4853 56.7367 85.8633 56.8988 85.3041 57.1974C84.5312 57.6216 83.8041 58.1242 83.1341 58.6974L80.3341 72.0364H72.5601L80.3741 35.3754L88.3451 34.3104L84.3201 53.2914L94.7381 45.0834H100.065L89.2921 52.5834C89.8702 52.4223 90.468 52.3429 91.0681 52.3474C91.8912 52.2903 92.7165 52.4203 93.482 52.7279C94.2475 53.0355 94.9334 53.5127 95.4881 54.1234C96.5181 55.4066 97.0507 57.0181 96.9881 58.6623C96.986 59.3511 96.919 60.0381 96.7881 60.7143L96.1961 63.3973C96.0172 63.9591 95.9242 64.5448 95.9201 65.1344C95.887 65.4136 95.919 65.6967 96.0137 65.9615C96.1084 66.2263 96.2631 66.4656 96.4658 66.6605C96.6685 66.8554 96.9136 67.0008 97.1819 67.0851C97.4502 67.1694 97.7344 67.1903 98.0121 67.1464C98.4984 67.1624 98.9819 67.0678 99.4263 66.8696C99.8706 66.6714 100.264 66.3749 100.577 66.0024C101.394 64.9064 102.046 63.6961 102.511 62.4104H104.8C102.551 69.0404 99.2751 72.3944 94.8551 72.3944L94.8531 72.3854Z" fill="#13493B"/>
<path d="M111.913 71.975C110.96 71.9959 110.013 71.821 109.131 71.4612C108.248 71.1013 107.449 70.5642 106.783 69.8829C105.402 68.4619 104.731 66.292 104.731 63.293C104.763 60.4333 105.298 57.6016 106.31 54.927C107.306 52.1156 108.925 49.5658 111.045 47.468C112.032 46.48 113.208 45.7015 114.503 45.1794C115.798 44.6574 117.186 44.4024 118.582 44.4299C119.724 44.343 120.866 44.6045 121.857 45.1799C122.189 45.3993 122.461 45.6987 122.647 46.0504C122.833 46.4022 122.927 46.7951 122.922 47.193V47.587L123.514 44.745H131.288L127.381 63.056C127.252 63.6257 127.184 64.2078 127.181 64.792C127.181 66.331 127.931 67.12 129.391 67.12C129.908 67.1096 130.416 66.9795 130.875 66.7399C131.334 66.5003 131.731 66.1577 132.035 65.739C132.845 64.6392 133.435 63.3929 133.771 62.069H136.02C134.678 65.936 133.06 68.5799 131.087 69.9609C129.38 71.2572 127.311 71.9886 125.168 72.053C123.841 72.1104 122.542 71.6587 121.537 70.79C120.564 69.7881 119.977 68.4741 119.88 67.0809C118.93 68.4623 117.756 69.676 116.407 70.672C115.076 71.5575 113.505 72.0114 111.907 71.9719L111.913 71.975ZM115.425 66.726C116.438 66.6684 117.388 66.2148 118.069 65.463C119.008 64.5132 119.64 63.3033 119.884 61.99L122.484 49.796C122.466 49.2856 122.271 48.7973 121.932 48.415C121.725 48.184 121.469 48.0034 121.181 47.8871C120.894 47.7708 120.584 47.7218 120.275 47.744C118.854 47.744 117.552 48.5729 116.408 50.2689C115.173 52.1125 114.266 54.1552 113.725 56.307C113.13 58.3349 112.799 60.4306 112.738 62.543C112.738 64.358 113.014 65.502 113.527 65.975C113.774 66.2233 114.07 66.418 114.396 66.5472C114.722 66.6764 115.071 66.7373 115.421 66.726H115.425ZM144.706 31.1689H150.389L143.838 41.39H139.813L144.706 31.1689ZM139.142 71.974C138.371 72.0041 137.602 71.876 136.883 71.5978C136.164 71.3195 135.509 70.8969 134.959 70.356C133.815 69.0084 133.248 67.2646 133.38 65.502C133.42 64.3207 133.566 63.1455 133.814 61.99L137.484 44.666H145.258L141.351 62.9769C141.189 63.5413 141.11 64.126 141.114 64.713C141.085 64.9913 141.115 65.2726 141.204 65.5381C141.292 65.8035 141.437 66.0469 141.627 66.252C142.122 66.5976 142.726 66.7522 143.327 66.687C144.434 66.6555 145.483 66.1882 146.247 65.387C147.193 64.4402 147.862 63.2527 148.181 61.953H150.43C149.088 65.821 147.391 68.4639 145.3 69.8459C143.52 71.1811 141.368 71.9262 139.144 71.9769L139.142 71.974Z" fill="#13493B"/>
<path d="M41.6741 22.4281L34.689 29.5282V20.6091H34.373C30.7339 20.944 27.1378 21.6446 23.6391 22.7002C12.9841 26.0152 5.17004 32.6062 2.17104 40.7742L1.69704 41.9982L1.53905 41.4061C0.904603 38.6742 0.824017 35.8427 1.30205 33.0791C3.00205 24.1601 10.7341 16.4262 21.9021 12.4402C25.4076 11.1828 29.0507 10.3481 32.7541 9.9541C33.6221 9.8751 34.4111 9.75415 34.5301 9.75415C34.6481 9.71515 34.688 8.68921 34.688 5.33521C34.6404 3.88746 34.6802 2.43808 34.8071 0.995117C34.9251 0.995117 48.698 15.1222 48.658 15.2012C48.618 15.2802 45.5011 18.5161 41.6731 22.4231L41.6741 22.4281Z" fill="#13493B"/>
<path d="M114.656 80.1931L121.641 73.0931V82.0121H121.957C125.596 81.6767 129.192 80.9758 132.691 79.92C143.346 76.605 151.16 70.0151 154.159 61.8461L154.633 60.623L154.791 61.2151C155.425 63.9467 155.506 66.7778 155.028 69.5411C153.328 78.4601 145.596 86.1941 134.428 90.1801C130.922 91.437 127.279 92.2716 123.576 92.6661C122.708 92.7451 121.919 92.8661 121.8 92.8661C121.682 92.9051 121.642 93.9312 121.642 97.2852C121.69 98.7332 121.65 100.183 121.524 101.626C121.406 101.626 107.633 87.4981 107.673 87.4191C107.673 87.3401 110.83 84.1431 114.658 80.1971L114.656 80.1931Z" fill="#13493B"/>
</svg>
