<svg xmlns="http://www.w3.org/2000/svg" xmlns:xlink="http://www.w3.org/1999/xlink" width="171.664" height="118.184" viewBox="0 0 171.664 118.184">
  <defs>
    <filter id="path2083-4" x="4.016" y="30.52" width="117.335" height="58.551" filterUnits="userSpaceOnUse">
      <feOffset dy="3" input="SourceAlpha"/>
      <feGaussianBlur stdDeviation="3" result="blur"/>
      <feFlood flood-opacity="0.161"/>
      <feComposite operator="in" in2="blur"/>
      <feComposite in="SourceGraphic"/>
    </filter>
    <filter id="path2085-7" x="103.281" y="30.036" width="63.502" height="58.709" filterUnits="userSpaceOnUse">
      <feOffset dy="3" input="SourceAlpha"/>
      <feGaussianBlur stdDeviation="3" result="blur-2"/>
      <feFlood flood-opacity="0.161"/>
      <feComposite operator="in" in2="blur-2"/>
      <feComposite in="SourceGraphic"/>
    </filter>
    <filter id="path4563-4-8-19-9-7" x="0" y="0" width="65.456" height="58.826" filterUnits="userSpaceOnUse">
      <feOffset dy="3" input="SourceAlpha"/>
      <feGaussianBlur stdDeviation="3" result="blur-3"/>
      <feFlood flood-opacity="0.161"/>
      <feComposite operator="in" in2="blur-3"/>
      <feComposite in="SourceGraphic"/>
    </filter>
    <filter id="path4563-4-8-19-9-7-2" x="106.208" y="59.358" width="65.456" height="58.826" filterUnits="userSpaceOnUse">
      <feOffset dy="3" input="SourceAlpha"/>
      <feGaussianBlur stdDeviation="3" result="blur-4"/>
      <feFlood flood-opacity="0.161"/>
      <feComposite operator="in" in2="blur-4"/>
      <feComposite in="SourceGraphic"/>
    </filter>
  </defs>
  <g id="Group_2" data-name="Group 2" transform="translate(-673.919 -303.455)">
    <g transform="matrix(1, 0, 0, 1, 673.92, 303.46)" filter="url(#path2083-4)">
      <path id="path2083-4-2" data-name="path2083-4" d="M-427.082,1306.441h-.668c-3.183,0-5.658.786-7.427,2.4-2.515,2.239-3.811,8.094-2.279,11.238.236.511.393.824.393.865a6.455,6.455,0,0,1-4.322-1.218,5.071,5.071,0,0,1-1.415-4.008,13.2,13.2,0,0,1,1.886-6.955,13.53,13.53,0,0,1,5.973-5.069,24.592,24.592,0,0,1,10.452-1.925,48.537,48.537,0,0,1,7.623.629,36.509,36.509,0,0,0,6.13.589,16.479,16.479,0,0,0,6.208-1.14,7.42,7.42,0,0,1-1.768,5.148,6.687,6.687,0,0,1-4.912,1.65,20.065,20.065,0,0,1-3.419-.275c-1.139-.2-2.79-.471-4.872-.9l-7.387,34.461h-7.741Zm13.438,8.684h7.741l-.707,3.34a21.116,21.116,0,0,1,3.3-2.476,6.061,6.061,0,0,1,3.183-.864,3.375,3.375,0,0,1,2.711,1.178,4.213,4.213,0,0,1,.982,2.83,4.182,4.182,0,0,1-1.022,2.75,3.51,3.51,0,0,1-2.829,1.179,1.982,1.982,0,0,1-1.611-.55,4.042,4.042,0,0,1-.589-1.651c-.118-.471-.236-.785-.314-1.021a.58.58,0,0,0-.589-.314,3.782,3.782,0,0,0-1.925.472,14.445,14.445,0,0,0-2,1.571l-4.283,20.394h-7.741Zm24.362,27.073a9.038,9.038,0,0,1-6.287-2.043c-1.532-1.375-2.318-3.5-2.318-6.444a25.922,25.922,0,0,1,1.493-8.094,18.611,18.611,0,0,1,4.833-7.7,11.6,11.6,0,0,1,8.37-3.262c4.6,0,6.876,2.869,6.876,8.567v.078a2.249,2.249,0,0,0,.59.04,11.013,11.013,0,0,0,4.087-.944,20.478,20.478,0,0,0,4.2-2.279l.472,1.454a13.237,13.237,0,0,1-4.047,2.829,21.083,21.083,0,0,1-5.462,1.65,24.055,24.055,0,0,1-2.2,8.527,14.731,14.731,0,0,1-4.558,5.658,10.3,10.3,0,0,1-6.051,1.965Zm2.161-4.833a3.618,3.618,0,0,0,2.593-1.493,12.779,12.779,0,0,0,2.24-4.008,28.37,28.37,0,0,0,1.415-5.658c-.982-.236-1.454-.983-1.454-2.279a2.818,2.818,0,0,1,1.69-2.908,5.131,5.131,0,0,0-.55-2.436,1.655,1.655,0,0,0-1.493-.668q-1.768,0-3.418,2.594a22.815,22.815,0,0,0-2.672,6.169,24.163,24.163,0,0,0-1.022,6.326,6.843,6.843,0,0,0,.59,3.458,2.253,2.253,0,0,0,2.082.9Zm33.753,4.951a7.151,7.151,0,0,1-5.03-1.571,5.9,5.9,0,0,1-1.729-4.559,14.43,14.43,0,0,1,.314-2.789l.432-2.083a7.794,7.794,0,0,0,.236-2c0-1.728-.629-2.593-1.925-2.593a4,4,0,0,0-1.808.471,12.79,12.79,0,0,0-2.161,1.493l-2.79,13.282h-7.741l7.78-36.5,7.937-1.061-4.008,18.9,10.374-8.173h5.3l-10.727,7.466a6.408,6.408,0,0,1,1.768-.236,5.437,5.437,0,0,1,4.4,1.768,6.807,6.807,0,0,1,1.493,4.519,10.93,10.93,0,0,1-.2,2.043l-.589,2.672a5.831,5.831,0,0,0-.275,1.729,1.812,1.812,0,0,0,2.083,2,3.2,3.2,0,0,0,2.554-1.14,13.876,13.876,0,0,0,1.926-3.577h2.279c-2.24,6.6-5.5,9.942-9.9,9.942Z" transform="translate(455.82 -1265.24)" fill="#fff"/>
    </g>
    <g transform="matrix(1, 0, 0, 1, 673.92, 303.46)" filter="url(#path2085-7)">
      <path id="path2085-7-2" data-name="path2085-7" d="M-190.449,1341.195a6.933,6.933,0,0,1-5.108-2.083c-1.375-1.415-2.043-3.576-2.043-6.562a24.3,24.3,0,0,1,1.572-8.33,19.706,19.706,0,0,1,4.715-7.427,10.32,10.32,0,0,1,7.505-3.025,5.639,5.639,0,0,1,3.261.747,2.363,2.363,0,0,1,1.061,2v.393l.589-2.83h7.741l-3.89,18.233a8.02,8.02,0,0,0-.2,1.729c0,1.532.747,2.318,2.2,2.318a3.336,3.336,0,0,0,2.633-1.375,10.538,10.538,0,0,0,1.729-3.654h2.24c-1.336,3.851-2.947,6.483-4.912,7.858a10.257,10.257,0,0,1-5.894,2.083,5.186,5.186,0,0,1-3.615-1.257,5.89,5.89,0,0,1-1.65-3.694,15.044,15.044,0,0,1-3.458,3.576,7.744,7.744,0,0,1-4.48,1.3Zm3.5-5.226a3.847,3.847,0,0,0,2.633-1.257,6.642,6.642,0,0,0,1.808-3.458l2.593-12.142a2.193,2.193,0,0,0-.55-1.375,2.019,2.019,0,0,0-1.65-.668c-1.415,0-2.711.825-3.851,2.514a19.231,19.231,0,0,0-2.672,6.012,24.58,24.58,0,0,0-.982,6.209c0,1.807.275,2.946.786,3.417a2.546,2.546,0,0,0,1.886.747Zm29.156-35.4h5.658l-6.523,10.177h-4.008Zm-5.54,40.63a5.627,5.627,0,0,1-4.165-1.611,6.694,6.694,0,0,1-1.572-4.834,19.881,19.881,0,0,1,.432-3.5l3.654-17.249h7.741l-3.89,18.232a6.124,6.124,0,0,0-.236,1.728,1.952,1.952,0,0,0,.511,1.532,2.49,2.49,0,0,0,1.69.433,4.182,4.182,0,0,0,2.908-1.3,7.3,7.3,0,0,0,1.925-3.419h2.24c-1.336,3.851-3.026,6.484-5.108,7.859a10.618,10.618,0,0,1-6.13,2.123Z" transform="translate(309.88 -1264.53)" fill="#fff"/>
    </g>
    <g transform="matrix(1, 0, 0, 1, 673.92, 303.46)" filter="url(#path4563-4-8-19-9-7)">
      <path id="path4563-4-8-19-9-7-3" data-name="path4563-4-8-19-9-7" d="M-412.521,1247.8l-6.955,7.073v-8.88h-.314a54.214,54.214,0,0,0-10.688,2.082c-10.609,3.3-18.39,9.863-21.376,18l-.472,1.219-.157-.589a20.9,20.9,0,0,1-.236-8.291c1.69-8.881,9.391-16.582,20.511-20.551a46.6,46.6,0,0,1,10.806-2.476c.864-.078,1.65-.2,1.768-.2.118-.039.157-1.061.157-4.4a35.875,35.875,0,0,1,.118-4.322c.118,0,13.831,14.066,13.792,14.145s-3.143,3.3-6.955,7.191Z" transform="translate(462.02 -1220.47)" fill="#fff"/>
    </g>
    <g transform="matrix(1, 0, 0, 1, 673.92, 303.46)" filter="url(#path4563-4-8-19-9-7-2)">
      <path id="path4563-4-8-19-9-7-4" data-name="path4563-4-8-19-9-7" d="M-183.2,1392.254l6.955-7.073v8.881h.314a54.228,54.228,0,0,0,10.688-2.083c10.609-3.3,18.389-9.863,21.376-18l.472-1.218.157.589a20.9,20.9,0,0,1,.236,8.291c-1.69,8.88-9.391,16.582-20.511,20.551a46.648,46.648,0,0,1-10.806,2.475c-.864.079-1.65.2-1.768.2-.118.039-.157,1.061-.157,4.4a35.891,35.891,0,0,1-.118,4.323c-.118,0-13.831-14.067-13.792-14.146,0-.079,3.143-3.262,6.955-7.191Z" transform="translate(305.36 -1307.41)" fill="#fff"/>
    </g>
  </g>
</svg>
