<svg xmlns="http://www.w3.org/2000/svg" xmlns:xlink="http://www.w3.org/1999/xlink" width="172.325" height="118.614" viewBox="0 0 172.325 118.614">
  <defs>
    <filter id="path2083-4" x="4.034" y="30.651" width="117.762" height="58.725" filterUnits="userSpaceOnUse">
      <feOffset dy="3" input="SourceAlpha"/>
      <feGaussianBlur stdDeviation="3" result="blur"/>
      <feFlood flood-opacity="0.161"/>
      <feComposite operator="in" in2="blur"/>
      <feComposite in="SourceGraphic"/>
    </filter>
    <filter id="path2085-7" x="103.725" y="30.166" width="63.698" height="58.884" filterUnits="userSpaceOnUse">
      <feOffset dy="3" input="SourceAlpha"/>
      <feGaussianBlur stdDeviation="3" result="blur-2"/>
      <feFlood flood-opacity="0.161"/>
      <feComposite operator="in" in2="blur-2"/>
      <feComposite in="SourceGraphic"/>
    </filter>
    <filter id="path4563-4-8-19-9-7" x="0" y="0" width="65.66" height="59.001" filterUnits="userSpaceOnUse">
      <feOffset dy="3" input="SourceAlpha"/>
      <feGaussianBlur stdDeviation="3" result="blur-3"/>
      <feFlood flood-opacity="0.161"/>
      <feComposite operator="in" in2="blur-3"/>
      <feComposite in="SourceGraphic"/>
    </filter>
    <filter id="path4563-4-8-19-9-7-2" x="106.665" y="59.613" width="65.66" height="59.002" filterUnits="userSpaceOnUse">
      <feOffset dy="3" input="SourceAlpha"/>
      <feGaussianBlur stdDeviation="3" result="blur-4"/>
      <feFlood flood-opacity="0.161"/>
      <feComposite operator="in" in2="blur-4"/>
      <feComposite in="SourceGraphic"/>
    </filter>
  </defs>
  <g id="Group_1" data-name="Group 1" transform="translate(-673.919 -303.455)">
    <g transform="matrix(1, 0, 0, 1, 673.92, 303.46)" filter="url(#path2083-4)">
      <path id="path2083-4-2" data-name="path2083-4" d="M-427.015,1306.461h-.671c-3.2,0-5.683.789-7.459,2.407-2.526,2.249-3.828,8.129-2.289,11.286.237.513.395.828.395.868a6.482,6.482,0,0,1-4.341-1.223,5.094,5.094,0,0,1-1.421-4.026,13.252,13.252,0,0,1,1.894-6.985,13.588,13.588,0,0,1,6-5.091,24.7,24.7,0,0,1,10.5-1.934,48.749,48.749,0,0,1,7.656.632,36.689,36.689,0,0,0,6.156.592,16.548,16.548,0,0,0,6.235-1.145,7.452,7.452,0,0,1-1.776,5.17,6.717,6.717,0,0,1-4.933,1.657,20.15,20.15,0,0,1-3.433-.276c-1.144-.2-2.8-.473-4.893-.908l-7.419,34.609h-7.774Zm13.5,8.721h7.774l-.71,3.354a21.206,21.206,0,0,1,3.315-2.487,6.086,6.086,0,0,1,3.2-.868,3.389,3.389,0,0,1,2.723,1.183,4.23,4.23,0,0,1,.986,2.842,4.2,4.2,0,0,1-1.026,2.762,3.525,3.525,0,0,1-2.841,1.184,1.99,1.99,0,0,1-1.618-.552,4.059,4.059,0,0,1-.592-1.658c-.118-.473-.237-.789-.316-1.026a.583.583,0,0,0-.592-.316,3.8,3.8,0,0,0-1.934.474,14.494,14.494,0,0,0-2.013,1.578l-4.3,20.481h-7.774Zm24.467,27.189a9.077,9.077,0,0,1-6.314-2.052c-1.539-1.381-2.328-3.512-2.328-6.472a26.036,26.036,0,0,1,1.5-8.129,18.692,18.692,0,0,1,4.854-7.735,11.645,11.645,0,0,1,8.406-3.276c4.617,0,6.906,2.881,6.906,8.6v.079a2.261,2.261,0,0,0,.592.04,11.061,11.061,0,0,0,4.1-.948,20.571,20.571,0,0,0,4.222-2.288l.474,1.46a13.294,13.294,0,0,1-4.065,2.842,21.168,21.168,0,0,1-5.485,1.657,24.159,24.159,0,0,1-2.21,8.564,14.794,14.794,0,0,1-4.578,5.682,10.341,10.341,0,0,1-6.077,1.973Zm2.17-4.853a3.634,3.634,0,0,0,2.6-1.5,12.836,12.836,0,0,0,2.249-4.025,28.487,28.487,0,0,0,1.421-5.683c-.987-.237-1.46-.987-1.46-2.289a2.83,2.83,0,0,1,1.7-2.92,5.154,5.154,0,0,0-.553-2.447,1.662,1.662,0,0,0-1.5-.671q-1.776,0-3.433,2.6a22.92,22.92,0,0,0-2.684,6.2,24.267,24.267,0,0,0-1.026,6.354,6.872,6.872,0,0,0,.592,3.473,2.262,2.262,0,0,0,2.091.908Zm33.9,4.972a7.182,7.182,0,0,1-5.051-1.578,5.92,5.92,0,0,1-1.736-4.578,14.487,14.487,0,0,1,.316-2.8l.434-2.092a7.825,7.825,0,0,0,.237-2.013c0-1.736-.631-2.6-1.934-2.6a4.02,4.02,0,0,0-1.815.473,12.849,12.849,0,0,0-2.17,1.5l-2.8,13.339h-7.774l7.814-36.661,7.971-1.065-4.025,18.981,10.418-8.208h5.327l-10.773,7.5a6.438,6.438,0,0,1,1.776-.236,5.46,5.46,0,0,1,4.42,1.776,6.836,6.836,0,0,1,1.5,4.539,10.978,10.978,0,0,1-.2,2.052l-.592,2.683a5.857,5.857,0,0,0-.276,1.737,1.82,1.82,0,0,0,2.092,2.012,3.212,3.212,0,0,0,2.565-1.144,13.936,13.936,0,0,0,1.934-3.592h2.289c-2.249,6.63-5.525,9.984-9.945,9.984Z" transform="translate(455.83 -1265.11)" fill="#13493B"/>
    </g>
    <g transform="matrix(1, 0, 0, 1, 673.92, 303.46)" filter="url(#path2085-7)">
      <path id="path2085-7-2" data-name="path2085-7" d="M-190.418,1341.37a6.962,6.962,0,0,1-5.13-2.092c-1.381-1.421-2.052-3.591-2.052-6.59a24.407,24.407,0,0,1,1.579-8.366,19.791,19.791,0,0,1,4.735-7.459,10.364,10.364,0,0,1,7.537-3.038,5.665,5.665,0,0,1,3.275.75,2.374,2.374,0,0,1,1.065,2.013v.394l.592-2.842h7.774l-3.907,18.311a8.055,8.055,0,0,0-.2,1.736c0,1.539.75,2.328,2.21,2.328a3.351,3.351,0,0,0,2.644-1.381,10.582,10.582,0,0,0,1.736-3.67h2.249c-1.342,3.867-2.96,6.511-4.933,7.892a10.3,10.3,0,0,1-5.919,2.092,5.208,5.208,0,0,1-3.631-1.263,5.915,5.915,0,0,1-1.657-3.709,15.111,15.111,0,0,1-3.473,3.591,7.776,7.776,0,0,1-4.5,1.3Zm3.512-5.249a3.864,3.864,0,0,0,2.644-1.263,6.67,6.67,0,0,0,1.815-3.473l2.6-12.194a2.2,2.2,0,0,0-.552-1.381,2.028,2.028,0,0,0-1.657-.671c-1.421,0-2.723.829-3.867,2.525a19.313,19.313,0,0,0-2.683,6.038,24.684,24.684,0,0,0-.987,6.236c0,1.815.276,2.959.789,3.432a2.557,2.557,0,0,0,1.894.751Zm29.281-35.557h5.683l-6.551,10.221h-4.025Zm-5.564,40.805a5.65,5.65,0,0,1-4.183-1.618,6.723,6.723,0,0,1-1.579-4.854,19.965,19.965,0,0,1,.434-3.512l3.67-17.324h7.774l-3.907,18.311a6.148,6.148,0,0,0-.237,1.736,1.96,1.96,0,0,0,.513,1.539,2.5,2.5,0,0,0,1.7.435,4.2,4.2,0,0,0,2.92-1.3,7.333,7.333,0,0,0,1.934-3.434h2.249c-1.342,3.868-3.039,6.511-5.13,7.893a10.663,10.663,0,0,1-6.156,2.131Z" transform="translate(310.33 -1264.4)" fill="#13493B"/>
    </g>
    <g transform="matrix(1, 0, 0, 1, 673.92, 303.46)" filter="url(#path4563-4-8-19-9-7)">
      <path id="path4563-4-8-19-9-7-3" data-name="path4563-4-8-19-9-7" d="M-412.347,1247.893l-6.985,7.1v-8.919h-.316a54.435,54.435,0,0,0-10.734,2.091c-10.655,3.315-18.469,9.906-21.468,18.074l-.474,1.224-.158-.592a20.993,20.993,0,0,1-.237-8.327c1.7-8.919,9.432-16.653,20.6-20.639a46.809,46.809,0,0,1,10.852-2.486c.868-.079,1.657-.2,1.776-.2.118-.039.158-1.065.158-4.419a36.026,36.026,0,0,1,.119-4.34c.118,0,13.891,14.127,13.851,14.206s-3.157,3.315-6.985,7.222Z" transform="translate(462.02 -1220.47)" fill="#13493B"/>
    </g>
    <g transform="matrix(1, 0, 0, 1, 673.92, 303.46)" filter="url(#path4563-4-8-19-9-7-2)">
      <path id="path4563-4-8-19-9-7-4" data-name="path4563-4-8-19-9-7" d="M-183.165,1392.338l6.985-7.1v8.919h.316a54.457,54.457,0,0,0,10.734-2.092c10.655-3.315,18.469-9.905,21.468-18.074l.474-1.223.158.592a20.99,20.99,0,0,1,.237,8.326c-1.7,8.919-9.432,16.653-20.6,20.639a46.861,46.861,0,0,1-10.852,2.486c-.868.079-1.657.2-1.776.2-.118.039-.158,1.065-.158,4.419a36.041,36.041,0,0,1-.118,4.341c-.118,0-13.891-14.128-13.851-14.207,0-.079,3.157-3.276,6.985-7.222Z" transform="translate(305.82 -1307.15)" fill="#13493B"/>
    </g>
  </g>
</svg>
